<svg xmlns="http://www.w3.org/2000/svg" width="392" height="142" viewBox="0 0 392 142" role="img" aria-labelledby="title desc">
  <title id="title">PSA logo</title>
  <desc id="desc">White PSA letters on a red background.</desc>
  <rect width="392" height="142" fill="#e50000"/>
  <g fill="#fff" transform="translate(18 120)">
    <path d="M0 0V-104h87c37 0 59 18 59 52s-22 52-59 52H34V0H0zm34-30h50c19 0 27-7 27-22s-8-22-27-22H34v44z"/>
    <path d="M194 3c-34 0-66-12-84-33l24-23c14 12 39 24 63 24 20 0 31-5 31-15 0-8-9-13-27-16l-33-5c-35-5-56-21-56-49 0-35 32-56 79-56 34 0 62 9 82 26l-23 24c-14-10-35-17-58-17-18 0-28 4-28 13 0 8 8 12 27 15l33 5c40 6 58 24 58 50 0 36-33 57-88 57z"/>
    <path d="M268 0l58-104h51l58 104h-39l-10-20h-68l-10 20h-40zm66-46h37l-19-36-18 36z"/>
    <text x="346" y="-8" font-family="Arial, Helvetica, sans-serif" font-size="20" font-weight="700">®</text>
  </g>
</svg>
